<svg width="33" height="32" viewBox="0 0 33 32" fill="none" xmlns="http://www.w3.org/2000/svg">
<path d="M29.3493 13.9199L28.0426 19.4933C26.9226 24.3066 24.7093 26.2533 20.5493 25.8533C19.8826 25.7999 19.1626 25.6799 18.3893 25.4933L16.1493 24.9599C10.5893 23.6399 8.86932 20.8933 10.176 15.3199L11.4826 9.73326C11.7493 8.59993 12.0693 7.61326 12.4693 6.79993C14.0293 3.57326 16.6826 2.7066 21.136 3.75993L23.3626 4.27993C28.9493 5.5866 30.656 8.3466 29.3493 13.9199Z" stroke="white" stroke-width="2" stroke-linecap="round" stroke-linejoin="round"/>
<path d="M20.5497 25.8534C19.723 26.4134 18.683 26.88 17.4164 27.2934L15.3097 27.9867C10.0164 29.6934 7.22969 28.2667 5.50969 22.9734L3.80303 17.7067C2.09636 12.4134 3.50969 9.61338 8.80303 7.90672L10.9097 7.21338C11.4564 7.04005 11.9764 6.89338 12.4697 6.80005C12.0697 7.61338 11.7497 8.60005 11.483 9.73338L10.1764 15.32C8.86969 20.8934 10.5897 23.64 16.1497 24.96L18.3897 25.4934C19.163 25.6801 19.883 25.8 20.5497 25.8534Z" stroke="white" stroke-width="2" stroke-linecap="round" stroke-linejoin="round"/>
<path d="M17.3228 11.3733L23.7894 13.0133" stroke="white" stroke-width="2" stroke-linecap="round" stroke-linejoin="round"/>
<path d="M16.0161 16.5332L19.8828 17.5199" stroke="white" stroke-width="2" stroke-linecap="round" stroke-linejoin="round"/>
</svg>
