<svg width="33" height="32" viewBox="0 0 33 32" fill="none" xmlns="http://www.w3.org/2000/svg">
<path d="M29.8024 8.33342V15.1334C29.8024 16.8267 29.2424 18.2534 28.2424 19.2401C27.2557 20.2401 25.8291 20.8001 24.1357 20.8001V23.2134C24.1357 24.12 23.1224 24.6667 22.3757 24.1601L21.0824 23.3067C21.2024 22.8934 21.2557 22.44 21.2557 21.96V16.5334C21.2557 13.8134 19.4424 12.0001 16.7224 12.0001H7.66907C7.4824 12.0001 7.30908 12.0134 7.13574 12.0268V8.33342C7.13574 4.93342 9.40241 2.66675 12.8024 2.66675H24.1357C27.5357 2.66675 29.8024 4.93342 29.8024 8.33342Z" stroke="white" stroke-width="2" stroke-miterlimit="10" stroke-linecap="round" stroke-linejoin="round"/>
<path d="M21.2557 16.5334V21.96C21.2557 22.44 21.2024 22.8933 21.0824 23.3066C20.5891 25.2666 18.9624 26.4933 16.7224 26.4933H13.0957L9.06907 29.1733C8.46907 29.5867 7.66907 29.1467 7.66907 28.4267V26.4933C6.30907 26.4933 5.17575 26.04 4.38908 25.2533C3.58908 24.4533 3.13574 23.32 3.13574 21.96V16.5334C3.13574 14 4.70908 12.2534 7.13574 12.0267C7.30907 12.0134 7.4824 12 7.66907 12H16.7224C19.4424 12 21.2557 13.8134 21.2557 16.5334Z" stroke="white" stroke-width="2" stroke-miterlimit="10" stroke-linecap="round" stroke-linejoin="round"/>
</svg>
