<svg width="96" height="96" viewBox="0 0 96 96" fill="none" xmlns="http://www.w3.org/2000/svg">
<circle cx="48" cy="48" r="48" fill="#1E1E32"/>
<g filter="url(#filter0_d_240_641)">
<mask id="path-2-outside-1_240_641" maskUnits="userSpaceOnUse" x="41" y="31" width="41" height="44" fill="black">
<rect fill="white" x="41" y="31" width="41" height="44"/>
<path d="M61.1201 74H42.5312V66.0635H45.8799V41.7529H42.5312V34.5811L58.5625 32.8408V49.874C59.248 48.6084 60.4434 47.5186 62.1484 46.6045C63.8711 45.6729 65.7783 45.207 67.8701 45.207C70.9287 45.207 73.2402 46.1123 74.8047 47.9229C76.3691 49.7158 77.1514 52.2383 77.1514 55.4902V66.0635H80.5V74H64.4424V56.7822C64.4424 55.7275 64.1348 54.8574 63.5195 54.1719C62.9219 53.4863 62.2275 53.1436 61.4365 53.1436C60.54 53.1436 59.8369 53.4512 59.3271 54.0664C58.8174 54.6816 58.5625 55.5078 58.5625 56.5449V66.0635H61.1201V74Z"/>
</mask>
<path d="M61.1201 74H42.5312V66.0635H45.8799V41.7529H42.5312V34.5811L58.5625 32.8408V49.874C59.248 48.6084 60.4434 47.5186 62.1484 46.6045C63.8711 45.6729 65.7783 45.207 67.8701 45.207C70.9287 45.207 73.2402 46.1123 74.8047 47.9229C76.3691 49.7158 77.1514 52.2383 77.1514 55.4902V66.0635H80.5V74H64.4424V56.7822C64.4424 55.7275 64.1348 54.8574 63.5195 54.1719C62.9219 53.4863 62.2275 53.1436 61.4365 53.1436C60.54 53.1436 59.8369 53.4512 59.3271 54.0664C58.8174 54.6816 58.5625 55.5078 58.5625 56.5449V66.0635H61.1201V74Z" fill="white"/>
<path d="M61.1201 74V75H62.1201V74H61.1201ZM42.5312 74H41.5312V75H42.5312V74ZM42.5312 66.0635V65.0635H41.5312V66.0635H42.5312ZM45.8799 66.0635V67.0635H46.8799V66.0635H45.8799ZM45.8799 41.7529H46.8799V40.7529H45.8799V41.7529ZM42.5312 41.7529H41.5312V42.7529H42.5312V41.7529ZM42.5312 34.5811L42.4233 33.5869L41.5312 33.6837V34.5811H42.5312ZM58.5625 32.8408H59.5625V31.7264L58.4546 31.8467L58.5625 32.8408ZM58.5625 49.874H57.5625L59.4418 50.3503L58.5625 49.874ZM62.1484 46.6045L62.6209 47.4858L62.6241 47.4841L62.1484 46.6045ZM74.8047 47.9229L74.048 48.5767L74.0512 48.5803L74.8047 47.9229ZM77.1514 66.0635H76.1514V67.0635H77.1514V66.0635ZM80.5 66.0635H81.5V65.0635H80.5V66.0635ZM80.5 74V75H81.5V74H80.5ZM64.4424 74H63.4424V75H64.4424V74ZM63.5195 54.1719L62.7658 54.829L62.7705 54.8344L62.7753 54.8398L63.5195 54.1719ZM58.5625 66.0635H57.5625V67.0635H58.5625V66.0635ZM61.1201 66.0635H62.1201V65.0635H61.1201V66.0635ZM61.1201 73H42.5312V75H61.1201V73ZM43.5312 74V66.0635H41.5312V74H43.5312ZM42.5312 67.0635H45.8799V65.0635H42.5312V67.0635ZM46.8799 66.0635V41.7529H44.8799V66.0635H46.8799ZM45.8799 40.7529H42.5312V42.7529H45.8799V40.7529ZM43.5312 41.7529V34.5811H41.5312V41.7529H43.5312ZM42.6392 35.5752L58.6704 33.835L58.4546 31.8467L42.4233 33.5869L42.6392 35.5752ZM57.5625 32.8408V49.874H59.5625V32.8408H57.5625ZM59.4418 50.3503C60.0072 49.3064 61.0303 48.3386 62.6209 47.4858L61.676 45.7231C59.8565 46.6985 58.4889 47.9104 57.6832 49.3977L59.4418 50.3503ZM62.6241 47.4841C64.1908 46.6368 65.9328 46.207 67.8701 46.207V44.207C65.6239 44.207 63.5514 44.7089 61.6727 45.7249L62.6241 47.4841ZM67.8701 46.207C70.725 46.207 72.7238 47.0441 74.048 48.5767L75.5613 47.269C73.7567 45.1805 71.1325 44.207 67.8701 44.207V46.207ZM74.0512 48.5803C75.4066 50.1337 76.1514 52.3911 76.1514 55.4902H78.1514C78.1514 52.0855 77.3317 49.2979 75.5582 47.2654L74.0512 48.5803ZM76.1514 55.4902V66.0635H78.1514V55.4902H76.1514ZM77.1514 67.0635H80.5V65.0635H77.1514V67.0635ZM79.5 66.0635V74H81.5V66.0635H79.5ZM80.5 73H64.4424V75H80.5V73ZM65.4424 74V56.7822H63.4424V74H65.4424ZM65.4424 56.7822C65.4424 55.5192 65.0675 54.3996 64.2638 53.504L62.7753 54.8398C63.202 55.3153 63.4424 55.9359 63.4424 56.7822H65.4424ZM64.2733 53.5147C63.5173 52.6475 62.5613 52.1436 61.4365 52.1436V54.1436C61.8938 54.1436 62.3265 54.3251 62.7658 54.829L64.2733 53.5147ZM61.4365 52.1436C60.2832 52.1436 59.2815 52.5541 58.5571 53.4284L60.0972 54.7044C60.3923 54.3483 60.7968 54.1436 61.4365 54.1436V52.1436ZM58.5571 53.4284C57.8592 54.2707 57.5625 55.3453 57.5625 56.5449H59.5625C59.5625 55.6703 59.7755 55.0926 60.0972 54.7044L58.5571 53.4284ZM57.5625 56.5449V66.0635H59.5625V56.5449H57.5625ZM58.5625 67.0635H61.1201V65.0635H58.5625V67.0635ZM60.1201 66.0635V74H62.1201V66.0635H60.1201Z" fill="black" mask="url(#path-2-outside-1_240_641)"/>
<g filter="url(#filter1_d_240_641)">
<mask id="path-4-outside-2_240_641" maskUnits="userSpaceOnUse" x="19" y="30" width="36" height="46" fill="black">
<rect fill="white" x="19" y="30" width="36" height="46"/>
<path d="M39.7529 74.7646C38.3115 74.7646 37.0811 74.6592 36.0615 74.4482C35.042 74.2373 34.0928 73.8945 33.2139 73.4199C32.3525 72.9453 31.4297 72.3301 30.4453 71.5742L29.5225 74H21.0059V61.1592H29.4697C30.0146 62.6357 30.8496 63.6816 31.9746 64.2969C33.1172 64.8945 34.5146 65.1934 36.167 65.1934C37.1865 65.1934 38.0566 64.9912 38.7773 64.5869C39.498 64.165 39.8584 63.6113 39.8584 62.9258C39.8584 62.0645 39.4893 61.4229 38.751 61.001C38.0127 60.5615 36.9756 60.1572 35.6396 59.7881C33.9346 59.3311 32.3877 58.8477 30.999 58.3379C29.6279 57.8281 28.3975 57.3008 27.3076 56.7559C25.1279 55.666 23.3701 54.1191 22.0342 52.1152C20.6982 50.1113 20.0303 47.4482 20.0303 44.126C20.0303 41.5771 20.584 39.3271 21.6914 37.376C22.7812 35.4424 24.3457 33.9395 26.3848 32.8672C28.4414 31.7773 30.8584 31.2324 33.6357 31.2324C37.0283 31.2324 39.709 32.3135 41.6777 34.4756L43.0225 31.9971H50.5898V44.5742H42.4951C41.7393 42.9922 40.9043 41.8936 39.9902 41.2783C39.0762 40.6631 37.8193 40.3555 36.2197 40.3555C35.0068 40.3555 34.0664 40.5752 33.3984 41.0146C32.7305 41.4365 32.3965 42.0254 32.3965 42.7812C32.3965 43.625 32.8799 44.2666 33.8467 44.7061C34.7959 45.1631 36.1494 45.585 37.9072 45.9717C40.9834 46.6748 43.6377 47.5625 45.8701 48.6348C48.0498 49.707 49.79 51.2275 51.0908 53.1963C52.4092 55.1475 53.0684 57.6699 53.0684 60.7637C53.0684 63.3828 52.5234 65.7559 51.4336 67.8828C50.3262 70.0098 48.7529 71.6885 46.7139 72.9189C44.6924 74.1494 42.3721 74.7646 39.7529 74.7646Z"/>
</mask>
<path d="M39.7529 74.7646C38.3115 74.7646 37.0811 74.6592 36.0615 74.4482C35.042 74.2373 34.0928 73.8945 33.2139 73.4199C32.3525 72.9453 31.4297 72.3301 30.4453 71.5742L29.5225 74H21.0059V61.1592H29.4697C30.0146 62.6357 30.8496 63.6816 31.9746 64.2969C33.1172 64.8945 34.5146 65.1934 36.167 65.1934C37.1865 65.1934 38.0566 64.9912 38.7773 64.5869C39.498 64.165 39.8584 63.6113 39.8584 62.9258C39.8584 62.0645 39.4893 61.4229 38.751 61.001C38.0127 60.5615 36.9756 60.1572 35.6396 59.7881C33.9346 59.3311 32.3877 58.8477 30.999 58.3379C29.6279 57.8281 28.3975 57.3008 27.3076 56.7559C25.1279 55.666 23.3701 54.1191 22.0342 52.1152C20.6982 50.1113 20.0303 47.4482 20.0303 44.126C20.0303 41.5771 20.584 39.3271 21.6914 37.376C22.7812 35.4424 24.3457 33.9395 26.3848 32.8672C28.4414 31.7773 30.8584 31.2324 33.6357 31.2324C37.0283 31.2324 39.709 32.3135 41.6777 34.4756L43.0225 31.9971H50.5898V44.5742H42.4951C41.7393 42.9922 40.9043 41.8936 39.9902 41.2783C39.0762 40.6631 37.8193 40.3555 36.2197 40.3555C35.0068 40.3555 34.0664 40.5752 33.3984 41.0146C32.7305 41.4365 32.3965 42.0254 32.3965 42.7812C32.3965 43.625 32.8799 44.2666 33.8467 44.7061C34.7959 45.1631 36.1494 45.585 37.9072 45.9717C40.9834 46.6748 43.6377 47.5625 45.8701 48.6348C48.0498 49.707 49.79 51.2275 51.0908 53.1963C52.4092 55.1475 53.0684 57.6699 53.0684 60.7637C53.0684 63.3828 52.5234 65.7559 51.4336 67.8828C50.3262 70.0098 48.7529 71.6885 46.7139 72.9189C44.6924 74.1494 42.3721 74.7646 39.7529 74.7646Z" fill="white"/>
<path d="M33.2139 73.4199L32.7312 74.2958L32.7387 74.2998L33.2139 73.4199ZM30.4453 71.5742L31.0543 70.7811L29.9885 69.9627L29.5107 71.2186L30.4453 71.5742ZM29.5225 74V75H30.2119L30.4571 74.3556L29.5225 74ZM21.0059 74H20.0059V75H21.0059V74ZM21.0059 61.1592V60.1592H20.0059V61.1592H21.0059ZM29.4697 61.1592L30.4079 60.813L30.1666 60.1592H29.4697V61.1592ZM31.9746 64.2969L31.4948 65.1742L31.5029 65.1787L31.5111 65.183L31.9746 64.2969ZM38.7773 64.5869L39.2666 65.4591L39.2746 65.4546L39.2825 65.4499L38.7773 64.5869ZM38.751 61.001L38.2395 61.8603L38.2471 61.8648L38.2548 61.8692L38.751 61.001ZM35.6396 59.7881L35.906 58.8242L35.8986 58.8222L35.6396 59.7881ZM30.999 58.3379L30.6505 59.2752L30.6544 59.2766L30.999 58.3379ZM21.6914 37.376L22.5611 37.8696L22.5626 37.867L21.6914 37.376ZM26.3848 32.8672L26.8502 33.7523L26.853 33.7508L26.3848 32.8672ZM41.6777 34.4756L40.9383 35.1489L41.8857 36.1892L42.5567 34.9525L41.6777 34.4756ZM43.0225 31.9971V30.9971H42.4273L42.1435 31.5202L43.0225 31.9971ZM50.5898 31.9971H51.5898V30.9971H50.5898V31.9971ZM50.5898 44.5742V45.5742H51.5898V44.5742H50.5898ZM42.4951 44.5742L41.5928 45.0053L41.8646 45.5742H42.4951V44.5742ZM33.3984 41.0146L33.9324 41.8601L33.9403 41.8552L33.9481 41.8501L33.3984 41.0146ZM33.8467 44.7061L34.2805 43.8051L34.2705 43.8003L34.2605 43.7957L33.8467 44.7061ZM37.9072 45.9717L38.1301 44.9968L38.1221 44.995L37.9072 45.9717ZM45.8701 48.6348L46.3116 47.7374L46.3031 47.7334L45.8701 48.6348ZM51.0908 53.1963L50.2564 53.7476L50.2622 53.7561L51.0908 53.1963ZM51.4336 67.8828L52.3206 68.3446L52.3236 68.3388L51.4336 67.8828ZM46.7139 72.9189L46.1972 72.0628L46.1939 72.0647L46.7139 72.9189ZM39.7529 73.7646C38.3557 73.7646 37.1971 73.662 36.2641 73.469L35.8589 75.4275C36.965 75.6563 38.2674 75.7646 39.7529 75.7646V73.7646ZM36.2641 73.469C35.3357 73.2769 34.4788 72.9665 33.689 72.54L32.7387 74.2998C33.7067 74.8225 34.7482 75.1977 35.8589 75.4275L36.2641 73.469ZM33.6965 72.5441C32.889 72.0991 32.0086 71.5138 31.0543 70.7811L29.8363 72.3674C30.8508 73.1464 31.8161 73.7915 32.7313 74.2958L33.6965 72.5441ZM29.5107 71.2186L28.5878 73.6444L30.4571 74.3556L31.38 71.9298L29.5107 71.2186ZM29.5225 73H21.0059V75H29.5225V73ZM22.0059 74V61.1592H20.0059V74H22.0059ZM21.0059 62.1592H29.4697V60.1592H21.0059V62.1592ZM28.5316 61.5054C29.1403 63.1549 30.1126 64.4183 31.4948 65.1742L32.4544 63.4195C31.5866 62.9449 30.889 62.1166 30.4079 60.813L28.5316 61.5054ZM31.5111 65.183C32.8313 65.8735 34.3974 66.1934 36.167 66.1934V64.1934C34.6319 64.1934 33.4031 63.9155 32.4381 63.4108L31.5111 65.183ZM36.167 66.1934C37.3182 66.1934 38.3653 65.9647 39.2666 65.4591L38.2881 63.7148C37.748 64.0178 37.0548 64.1934 36.167 64.1934V66.1934ZM39.2825 65.4499C40.2314 64.8945 40.8584 64.0487 40.8584 62.9258H38.8584C38.8584 63.1739 38.7647 63.4356 38.2722 63.7239L39.2825 65.4499ZM40.8584 62.9258C40.8584 61.7114 40.302 60.7355 39.2471 60.1327L38.2548 61.8692C38.6766 62.1102 38.8584 62.4175 38.8584 62.9258H40.8584ZM39.2625 60.1417C38.4153 59.6374 37.2822 59.2045 35.906 58.8242L35.3733 60.752C36.6689 61.11 37.6101 61.4856 38.2395 61.8603L39.2625 60.1417ZM35.8986 58.8222C34.2171 58.3715 32.6994 57.8968 31.3436 57.3991L30.6544 59.2766C32.076 59.7985 33.652 60.2906 35.3807 60.754L35.8986 58.8222ZM31.3475 57.4006C30.0036 56.9009 28.807 56.3875 27.7548 55.8614L26.8604 57.6503C27.988 58.2141 29.2522 58.7553 30.6505 59.2752L31.3475 57.4006ZM27.7548 55.8614C25.7289 54.8484 24.1044 53.4179 22.8662 51.5605L21.2021 52.6699C22.6358 54.8204 24.527 56.4836 26.8604 57.6503L27.7548 55.8614ZM22.8662 51.5605C21.6741 49.7723 21.0303 47.3234 21.0303 44.126H19.0303C19.0303 47.5731 19.7224 50.4503 21.2021 52.6699L22.8662 51.5605ZM21.0303 44.126C21.0303 41.7263 21.5502 39.6507 22.5611 37.8696L20.8217 36.8824C19.6178 39.0036 19.0303 41.428 19.0303 44.126H21.0303ZM22.5626 37.867C23.5542 36.1076 24.9747 34.7385 26.8502 33.7523L25.9193 31.9821C23.7167 33.1404 22.0083 34.7771 20.8203 36.885L22.5626 37.867ZM26.853 33.7508C28.74 32.7508 30.9902 32.2324 33.6357 32.2324V30.2324C30.7266 30.2324 28.1428 30.8038 25.9165 31.9836L26.853 33.7508ZM33.6357 32.2324C36.7964 32.2324 39.19 33.2289 40.9383 35.1489L42.4171 33.8023C40.2279 31.3981 37.2603 30.2324 33.6357 30.2324V32.2324ZM42.5567 34.9525L43.9014 32.474L42.1435 31.5202L40.7988 33.9987L42.5567 34.9525ZM43.0225 32.9971H50.5898V30.9971H43.0225V32.9971ZM49.5898 31.9971V44.5742H51.5898V31.9971H49.5898ZM50.5898 43.5742H42.4951V45.5742H50.5898V43.5742ZM43.3974 44.1431C42.6058 42.4862 41.674 41.2062 40.5486 40.4487L39.4319 42.1079C40.1346 42.5809 40.8727 43.4981 41.5928 45.0053L43.3974 44.1431ZM40.5486 40.4487C39.4106 39.6827 37.9328 39.3555 36.2197 39.3555V41.3555C37.7059 41.3555 38.7418 41.6434 39.4319 42.1079L40.5486 40.4487ZM36.2197 39.3555C34.9057 39.3555 33.744 39.5903 32.8488 40.1792L33.9481 41.8501C34.3888 41.5601 35.108 41.3555 36.2197 41.3555V39.3555ZM32.8644 40.1692C31.9222 40.7642 31.3965 41.6639 31.3965 42.7812H33.3965C33.3965 42.3868 33.5387 42.1088 33.9324 41.8601L32.8644 40.1692ZM31.3965 42.7812C31.3965 43.4086 31.5811 43.9937 31.9603 44.497C32.3297 44.9873 32.8447 45.3491 33.4329 45.6164L34.2605 43.7957C33.8819 43.6236 33.6717 43.4448 33.5577 43.2935C33.4535 43.1552 33.3965 42.9977 33.3965 42.7812H31.3965ZM33.4129 45.6071C34.4639 46.1131 35.9041 46.5549 37.6924 46.9483L38.1221 44.995C36.3947 44.615 35.1279 44.213 34.2805 43.8051L33.4129 45.6071ZM37.6844 46.9465C40.7067 47.6374 43.2872 48.5035 45.4372 49.5362L46.3031 47.7334C43.9882 46.6215 41.2601 45.7123 38.1301 44.9968L37.6844 46.9465ZM45.4287 49.5321C47.4539 50.5283 49.0566 51.9315 50.2565 53.7475L51.9252 52.645C50.5235 50.5236 48.6457 48.8857 46.3115 47.7375L45.4287 49.5321ZM50.2622 53.7561C51.4387 55.4973 52.0684 57.8077 52.0684 60.7637H54.0684C54.0684 57.5322 53.3797 54.7976 51.9194 52.6364L50.2622 53.7561ZM52.0684 60.7637C52.0684 63.2397 51.5544 65.4541 50.5436 67.4268L52.3236 68.3388C53.4925 66.0576 54.0684 63.5259 54.0684 60.7637H52.0684ZM50.5466 67.421C49.5234 69.3862 48.0778 70.9279 46.1972 72.0628L47.2305 73.7751C49.4281 72.449 51.1289 70.6334 52.3206 68.3446L50.5466 67.421ZM46.1939 72.0647C44.3455 73.1899 42.2088 73.7646 39.7529 73.7646V75.7646C42.5353 75.7646 45.0393 75.1089 47.2338 73.7731L46.1939 72.0647Z" fill="black" mask="url(#path-4-outside-2_240_641)"/>
</g>
</g>
<g filter="url(#filter2_d_240_641)">
<path d="M21.4703 39.0113L18.7985 32.6596L26.2072 29.5485C26.4742 29.4326 32.0424 27.0982 32.6129 26.8586C32.8775 27.3892 35.0813 32.7266 35.2848 33.2104C35.068 33.4354 29.5134 37.9198 29.1827 38.0587C28.8613 38.1936 21.7968 38.9991 21.4703 39.0113Z" fill="black" stroke="black" stroke-width="2" stroke-linecap="round"/>
<path d="M27.062 33.6978L11.3002 33.366L22.4973 22.7362L38.5182 21.7738L27.062 33.6978Z" fill="#48487B" stroke="black" stroke-width="0.5"/>
<path d="M23.6045 28.1152L16.4466 33.291" stroke="#AC9805" stroke-linecap="round"/>
<path d="M16.4473 33.291L16.4131 36.3108" stroke="#AC9805" stroke-linecap="round"/>
<path d="M17.4051 37.2995C17.3989 37.8517 16.9467 38.3084 16.3951 38.3195C15.8435 38.3306 15.4014 37.8919 15.4076 37.3397C15.4139 36.7874 15.8661 36.3307 16.4177 36.3196C16.9693 36.3085 17.4114 36.7472 17.4051 37.2995Z" fill="#AC9805"/>
<path d="M25.5694 26.9936C25.8497 27.6738 25.2023 27.8653 24.4363 28.181C23.6704 28.4967 23.076 28.817 22.7957 28.1367C22.5154 27.4565 22.909 26.6492 23.6749 26.3335C24.4408 26.0179 25.289 26.3134 25.5694 26.9936Z" fill="black"/>
<path d="M16.4439 37.0679L17.7117 40.8339L16.3587 41.1727L15.0192 40.8586L16.4439 37.0679Z" fill="#AC9805"/>
</g>
<defs>
<filter id="filter0_d_240_641" x="20.0303" y="31.2324" width="63.4697" height="46.5322" filterUnits="userSpaceOnUse" color-interpolation-filters="sRGB">
<feFlood flood-opacity="0" result="BackgroundImageFix"/>
<feColorMatrix in="SourceAlpha" type="matrix" values="0 0 0 0 0 0 0 0 0 0 0 0 0 0 0 0 0 0 127 0" result="hardAlpha"/>
<feOffset dx="2" dy="2"/>
<feGaussianBlur stdDeviation="0.5"/>
<feComposite in2="hardAlpha" operator="out"/>
<feColorMatrix type="matrix" values="0 0 0 0 0 0 0 0 0 0 0 0 0 0 0 0 0 0 0.25 0"/>
<feBlend mode="normal" in2="BackgroundImageFix" result="effect1_dropShadow_240_641"/>
<feBlend mode="normal" in="SourceGraphic" in2="effect1_dropShadow_240_641" result="shape"/>
</filter>
<filter id="filter1_d_240_641" x="20.0303" y="30.2324" width="36.0381" height="45.5322" filterUnits="userSpaceOnUse" color-interpolation-filters="sRGB">
<feFlood flood-opacity="0" result="BackgroundImageFix"/>
<feColorMatrix in="SourceAlpha" type="matrix" values="0 0 0 0 0 0 0 0 0 0 0 0 0 0 0 0 0 0 127 0" result="hardAlpha"/>
<feOffset dx="2"/>
<feGaussianBlur stdDeviation="0.5"/>
<feComposite in2="hardAlpha" operator="out"/>
<feColorMatrix type="matrix" values="0 0 0 0 0 0 0 0 0 0 0 0 0 0 0 0 0 0 0.25 0"/>
<feBlend mode="normal" in2="BackgroundImageFix" result="effect1_dropShadow_240_641"/>
<feBlend mode="normal" in="SourceGraphic" in2="effect1_dropShadow_240_641" result="shape"/>
</filter>
<filter id="filter2_d_240_641" x="10.6973" y="21.4909" width="30.4336" height="21.6818" filterUnits="userSpaceOnUse" color-interpolation-filters="sRGB">
<feFlood flood-opacity="0" result="BackgroundImageFix"/>
<feColorMatrix in="SourceAlpha" type="matrix" values="0 0 0 0 0 0 0 0 0 0 0 0 0 0 0 0 0 0 127 0" result="hardAlpha"/>
<feOffset dx="1" dy="1"/>
<feGaussianBlur stdDeviation="0.5"/>
<feComposite in2="hardAlpha" operator="out"/>
<feColorMatrix type="matrix" values="0 0 0 0 0 0 0 0 0 0 0 0 0 0 0 0 0 0 0.5 0"/>
<feBlend mode="normal" in2="BackgroundImageFix" result="effect1_dropShadow_240_641"/>
<feBlend mode="normal" in="SourceGraphic" in2="effect1_dropShadow_240_641" result="shape"/>
</filter>
</defs>
</svg>
